<svg xmlns="http://www.w3.org/2000/svg">
<symbol id="gearGroup" viewBox="0 0 83 53">
<path d="M19.6846 35.8041C14.5044 35.8041 10.3603 31.66 10.3603 26.4798C10.3603 21.2997 14.5044 17.1556 19.6846 17.1556C24.8647 17.1556 29.0088 21.2997 29.0088 26.4798C29.0088 31.66 24.8647 35.8041 19.6846 35.8041ZM19.6846 19.2276C15.644 19.2276 12.4324 22.4393 12.4324 26.4798C12.4324 30.5204 15.644 33.7321 19.6846 33.7321C23.7251 33.7321 26.9368 30.5204 26.9368 26.4798C26.9368 22.4393 23.7251 19.2276 19.6846 19.2276Z" />
<path d="M22.4819 46.1644H16.8873L15.3332 41.3987C14.2972 41.0879 13.2612 40.6735 12.3288 40.1555L7.77023 42.4347L3.83331 38.4978L6.11258 33.9393C5.59456 33.0069 5.18015 31.9708 4.86934 30.9348L0 29.2771V23.6826L4.76574 22.1285C5.07655 21.0925 5.49096 20.0565 6.00897 19.124L3.72971 14.5655L7.66662 10.6286L12.2252 12.9079C13.1576 12.3899 14.1936 11.9754 15.2296 11.6646L16.8873 6.79529H22.4819L24.0359 11.561C25.0719 11.8718 26.108 12.2862 27.0404 12.8043L31.5989 10.525L35.5358 14.4619L33.2566 19.0204C33.7746 19.9529 34.189 20.9889 34.4998 22.0249L39.2655 23.579V29.1735L34.4998 30.7276C34.189 31.7636 33.7746 32.7996 33.2566 33.7321L35.5358 38.2906L31.5989 42.2275L27.0404 39.9483C26.108 40.4663 25.0719 40.8807 24.0359 41.1915L22.4819 46.1644ZM18.3377 44.0924H21.0314L22.4819 39.6374L22.9999 39.5338C24.2431 39.223 25.3827 38.705 26.5224 38.0834L27.0404 37.7726L31.1845 39.8447L33.0494 37.9798L30.9773 33.8357L31.2881 33.3177C31.9097 32.2816 32.4277 31.0384 32.7385 29.7952L32.8422 29.2771L37.2971 27.8267V25.133L32.8422 23.6826L32.7385 23.1646C32.4277 21.9213 31.9097 20.7817 31.2881 19.6421L30.9773 19.124L33.0494 14.9799L31.1845 13.1151L27.0404 15.1871L26.5224 14.8763C25.3827 14.2547 24.2431 13.7367 22.9999 13.4259L22.4819 13.3223L21.0314 8.86735H18.3377L16.8873 13.3223L16.3693 13.4259C15.126 13.7367 13.9864 14.2547 12.8468 14.8763L12.3288 15.1871L8.18464 13.1151L6.31978 14.9799L8.39184 19.124L8.08103 19.6421C7.45942 20.6781 6.9414 21.9213 6.63059 23.1646L6.52699 23.6826L2.07206 25.133V27.8267L6.52699 29.2771L6.63059 29.7952C6.9414 31.0384 7.45942 32.178 8.08103 33.3177L8.39184 33.8357L6.31978 37.9798L8.18464 39.8447L12.3288 37.7726L12.8468 38.0834C13.9864 38.705 15.126 39.223 16.3693 39.5338L16.8873 39.6374L18.3377 44.0924Z"/>
<path d="M52.8361 35.3903C48.0741 33.3512 45.8959 27.9104 47.935 23.1484C49.9741 18.3865 55.4149 16.2082 60.1768 18.2474C64.9388 20.2865 67.117 25.7273 65.0779 30.4892C63.0388 35.2512 57.598 37.4294 52.8361 35.3903ZM59.3612 20.1521C55.6469 18.5616 51.4302 20.2498 49.8397 23.9641C48.2492 27.6784 49.9374 31.895 53.6517 33.4855C57.366 35.076 61.5827 33.3879 63.1732 29.6736C64.7637 25.9593 63.0755 21.7426 59.3612 20.1521Z" />
<path d="M51.2361 45.6632L46.0932 43.461L46.5406 38.4683C45.7105 37.7747 44.9213 36.986 44.268 36.1427L39.1803 36.4436L37.111 31.2748L41.0006 27.9815C40.8915 26.9204 40.9184 25.8049 41.0405 24.7302L37.2168 21.2896L39.419 16.1467L44.4117 16.5941C45.1052 15.7641 45.894 14.9748 46.7372 14.3216L46.4364 9.23386L51.6052 7.16451L54.8985 11.0542C55.9595 10.945 57.0751 10.9719 58.1498 11.094L61.5904 7.27028L66.7333 9.47251L66.2859 14.4652C67.1159 15.1588 67.9052 15.9475 68.5584 16.7908L73.6461 16.4899L75.7155 21.6587L71.8258 24.952C71.935 26.0131 71.9081 27.1286 71.786 28.2033L75.5552 31.5079L73.353 36.6508L68.3603 36.2034C67.6668 37.0334 66.878 37.8227 66.0347 38.4759L66.3356 43.5636L61.1668 45.633L57.8735 41.7433C56.8124 41.8525 55.6969 41.8256 54.6222 41.7035L51.2361 45.6632ZM48.2422 42.1272L50.7184 43.1875L53.8053 39.6632L54.3223 39.7718C55.5875 39.9755 56.8391 39.9479 58.1314 39.8251L58.7299 39.7433L61.7238 43.2793L64.1722 42.2991L63.8987 37.6739L64.3883 37.3201C65.3676 36.6124 66.3332 35.6734 67.1083 34.6529L67.4074 34.2175L72.0736 34.6378L73.134 32.1616L69.6097 29.0746L69.7183 28.5576C69.922 27.2924 69.8944 26.0409 69.7716 24.7486L69.6898 24.15L73.2258 21.1561L72.2456 18.7078L67.6204 18.9813L67.2666 18.4916C66.4636 17.4716 65.6199 16.5468 64.5994 15.7717L64.164 15.4725L64.5843 10.8063L62.1081 9.746L59.0211 13.2703L58.5041 13.1616C57.2389 12.958 55.9874 12.9856 54.6951 13.1084L54.0965 13.1902L51.1026 9.65415L48.6542 10.6344L48.9277 15.2596L48.4381 15.6134C47.4589 16.3211 46.4933 17.26 45.7182 18.2806L45.419 18.716L40.7528 18.2957L39.6925 20.7719L43.2168 23.8589L43.1081 24.3758C42.9045 25.6411 42.932 26.8926 43.0549 28.1849L43.1367 28.7834L39.6006 31.7774L40.5808 34.2257L45.206 33.9522L45.5599 34.4419C46.3628 35.4619 47.2065 36.3867 48.227 37.1618L48.6625 37.4609L48.2422 42.1272Z" />
</symbol>

<symbol id="phone" viewBox="0 0 1 1" >
<path d="M0.937313 0.999999C0.404125 1.00075 -0.000561914 0.591249 5.85668e-07 0.0626874C5.85668e-07 0.028125 0.0280006 0 0.0625006 0H0.2275C0.258438 0 0.28475 0.02275 0.289313 0.0533749C0.300194 0.126816 0.321558 0.198315 0.35275 0.265687L0.359188 0.279562C0.363512 0.288899 0.364442 0.299452 0.361818 0.309402C0.359194 0.319351 0.35318 0.328073 0.344813 0.334062C0.293688 0.370562 0.274188 0.444 0.314 0.501249C0.364124 0.573332 0.426684 0.635913 0.49875 0.686062C0.556063 0.725812 0.6295 0.706312 0.665938 0.655249C0.671921 0.646857 0.68065 0.640821 0.690614 0.638184C0.700577 0.635548 0.711149 0.636477 0.7205 0.640812L0.734313 0.647187C0.801688 0.678437 0.873188 0.699812 0.946625 0.710687C0.97725 0.715249 1 0.741562 1 0.772562V0.937499C1 0.945712 0.998381 0.953844 0.995237 0.961431C0.992092 0.969018 0.987482 0.975911 0.981672 0.981715C0.975862 0.98752 0.968964 0.992122 0.961374 0.995259C0.953784 0.998397 0.94565 1.00001 0.937438 0.999999H0.937313Z" />

</symbol>

<symbol id="gearMail" viewBox="0 0 54 54" >
<path d="M26.903 39.5878C19.903 39.5878 14.303 33.9878 14.303 26.9878C14.303 19.9878 19.903 14.3878 26.903 14.3878C33.903 14.3878 39.503 19.9878 39.503 26.9878C39.503 33.9878 33.903 39.5878 26.903 39.5878ZM26.903 17.1878C21.443 17.1878 17.103 21.5278 17.103 26.9878C17.103 32.4478 21.443 36.7878 26.903 36.7878C32.363 36.7878 36.703 32.4478 36.703 26.9878C36.703 21.5278 32.363 17.1878 26.903 17.1878Z"/>
<path d="M30.38 53.2H22.82L20.72 46.76C19.32 46.34 17.92 45.78 16.66 45.08L10.5 48.16L5.18 42.84L8.26 36.68C7.56 35.42 7 34.02 6.58 32.62L0 30.38V22.82L6.44 20.72C6.86 19.32 7.42 17.92 8.12 16.66L5.04 10.5L10.36 5.18L16.52 8.26C17.78 7.56 19.18 7 20.58 6.58L22.82 0H30.38L32.48 6.44C33.88 6.86 35.28 7.42 36.54 8.12L42.7 5.04L48.02 10.36L44.94 16.52C45.64 17.78 46.2 19.18 46.62 20.58L53.06 22.68V30.24L46.62 32.34C46.2 33.74 45.64 35.14 44.94 36.4L48.02 42.56L42.7 47.88L36.54 44.8C35.28 45.5 33.88 46.06 32.48 46.48L30.38 53.2ZM24.78 50.4H28.42L30.38 44.38L31.08 44.24C32.76 43.82 34.3 43.12 35.84 42.28L36.54 41.86L42.14 44.66L44.66 42.14L41.86 36.54L42.28 35.84C43.12 34.44 43.82 32.76 44.24 31.08L44.38 30.38L50.4 28.42V24.78L44.38 22.82L44.24 22.12C43.82 20.44 43.12 18.9 42.28 17.36L41.86 16.66L44.66 11.06L42.14 8.54L36.54 11.34L35.84 10.92C34.3 10.08 32.76 9.38 31.08 8.96L30.38 8.82L28.42 2.8H24.78L22.82 8.82L22.12 8.96C20.44 9.38 18.9 10.08 17.36 10.92L16.66 11.34L11.06 8.54L8.54 11.06L11.34 16.66L10.92 17.36C10.08 18.76 9.38 20.44 8.96 22.12L8.82 22.82L2.8 24.78V28.42L8.82 30.38L8.96 31.08C9.38 32.76 10.08 34.3 10.92 35.84L11.34 36.54L8.54 42.14L11.06 44.66L16.66 41.86L17.36 42.28C18.9 43.12 20.44 43.82 22.12 44.24L22.82 44.38L24.78 50.4Z"/>
<path d="M19 25.496V30C19 30.7956 19.3161 31.5587 19.8787 32.1213C20.4413 32.6839 21.2044 33 22 33H32C32.7956 33 33.5587 32.6839 34.1213 32.1213C34.6839 31.5587 35 30.7956 35 30V25.496L27.41 28.912C27.2811 28.97 27.1413 28.9999 27 28.9999C26.8587 28.9999 26.7189 28.97 26.59 28.912L19 25.496ZM19.074 23.336L27 26.904L34.926 23.336C34.7754 22.6726 34.4038 22.08 33.8721 21.6555C33.3405 21.2311 32.6803 20.9999 32 21H22C21.3197 20.9999 20.6595 21.2311 20.1279 21.6555C19.5962 22.08 19.2246 22.6726 19.074 23.336Z"/>
</symbol>
<symbol id="arrowDown" viewBox="0 0 16 10" >
<path d="M6.58579 8.58579L1.41421 3.41421C0.154284 2.15428 1.04662 0 2.82843 0H13.1716C14.9534 0 15.8457 2.15428 14.5858 3.41421L9.41421 8.58579C8.63317 9.36684 7.36684 9.36684 6.58579 8.58579Z"/>
</symbol>

<symbol id="vk" viewBox="0 0 74 74" >
<path d="M36.9045 0C16.5225 0 0 16.5225 0 36.9045C0 57.2866 16.5225 73.809 36.9045 73.809C57.2866 73.809 73.809 57.2866 73.809 36.9045C73.809 16.5225 57.2866 0 36.9045 0ZM51.0974 41.6368C51.0974 41.6368 54.3611 44.8582 55.1646 46.3536C55.1876 46.3844 55.1992 46.4151 55.2069 46.4305C55.5336 46.9802 55.6105 47.4069 55.449 47.726C55.18 48.2565 54.2573 48.5179 53.9421 48.541H48.1758C47.776 48.541 46.9379 48.4372 45.9231 47.7375C45.1427 47.1917 44.3738 46.296 43.6242 45.4233C42.5056 44.124 41.5368 43.0015 40.5604 43.0015C40.4364 43.0012 40.3131 43.0207 40.1952 43.0591C39.4571 43.2975 38.5114 44.3508 38.5114 47.1571C38.5114 48.0335 37.8194 48.5371 37.3312 48.5371H34.6903C33.7907 48.5371 29.1046 48.2219 24.9528 43.8433C19.8708 38.4807 15.2962 27.7245 15.2577 27.6246C14.9694 26.9288 15.5653 26.5559 16.2149 26.5559H22.0389C22.8155 26.5559 23.0692 27.0287 23.246 27.4477C23.4536 27.936 24.2147 29.8773 25.4641 32.0608C27.49 35.6206 28.7317 37.066 29.7274 37.066C29.9141 37.0638 30.0974 37.0163 30.2617 36.9276C31.5611 36.2049 31.3189 31.5726 31.2612 30.6115C31.2612 30.4309 31.2574 28.5395 30.5923 27.6323C30.1156 26.9749 29.3045 26.725 28.8124 26.6328C29.0116 26.3579 29.274 26.1351 29.5774 25.9831C30.4693 25.5372 32.0762 25.4718 33.6715 25.4718H34.5595C36.2894 25.4949 36.7354 25.6064 37.362 25.764C38.6306 26.0677 38.6575 26.8865 38.546 29.6889C38.5114 30.4847 38.4768 31.3842 38.4768 32.4452C38.4768 32.6759 38.4653 32.9219 38.4653 33.1833C38.4268 34.6095 38.3807 36.2279 39.3879 36.893C39.5193 36.9754 39.6711 37.0193 39.8261 37.0198C40.176 37.0198 41.2293 37.0198 44.0817 32.1262C44.9614 30.551 45.7258 28.9142 46.369 27.2286C46.4267 27.1287 46.5958 26.8211 46.7957 26.702C46.9432 26.6267 47.1068 26.5885 47.2724 26.5905H54.1189C54.8647 26.5905 55.376 26.702 55.4721 26.9903C55.6413 27.4477 55.4414 28.8432 52.316 33.0757L50.9206 34.9171C48.0874 38.6306 48.0874 38.8189 51.0974 41.6368Z"/>
</symbol>

<symbol id="telegram" viewBox="0 0 77 77" >
<path d="M38.4422 0C17.2111 0 0 17.2111 0 38.4422C0 59.6733 17.2111 76.8844 38.4422 76.8844C59.6733 76.8844 76.8844 59.6733 76.8844 38.4422C76.8844 17.2111 59.6733 0 38.4422 0ZM56.2608 26.1438C55.6823 32.2225 53.1791 46.9736 51.905 53.7819C51.3662 56.6626 50.305 57.6286 49.278 57.723C47.0458 57.9285 45.3503 56.2478 43.1881 54.8304C39.8047 52.6125 37.8933 51.2318 34.609 49.0676C30.8136 46.5665 33.2741 45.1924 35.4371 42.9448C36.0031 42.3568 45.8392 33.4102 46.0296 32.5985C46.0533 32.497 46.0761 32.118 45.8507 31.919C45.6253 31.7199 45.2942 31.7874 45.0547 31.8415C44.7155 31.9186 39.3104 35.4911 28.8396 42.5591C27.3055 43.6125 25.9159 44.1258 24.6708 44.099C23.2981 44.0693 20.6579 43.323 18.695 42.6848C16.2876 41.9023 14.3741 41.4886 14.5408 40.1596C14.6276 39.4672 15.5809 38.7593 17.4007 38.0359C28.6074 33.1534 36.0803 29.9343 39.8193 28.3789C50.4951 23.9383 52.7134 23.167 54.1593 23.1413C54.4774 23.136 55.1884 23.2148 55.649 23.5885C55.9553 23.8547 56.1506 24.2262 56.1962 24.6295C56.2742 25.1303 56.2959 25.6382 56.2608 26.1438Z"/>
</symbol>

<symbol id="whatsapp" viewBox="0 0 77 77" >
<path fill-rule="evenodd" clip-rule="evenodd" d="M62.0856 14.3889C58.9758 11.2776 55.2813 8.81212 51.2148 7.13439C47.1483 5.45665 42.7901 4.59981 38.3911 4.61319C19.9299 4.61319 4.90135 19.5666 4.89385 37.9498C4.88568 43.8034 6.42867 49.5547 9.36576 54.6181L4.61304 71.8871L22.37 67.2515C27.2853 69.9142 32.7875 71.3079 38.3776 71.3059H38.3911C56.8509 71.3059 71.8779 56.351 71.8869 37.9693C71.8981 33.5853 71.0373 29.2429 69.3547 25.1947C67.672 21.1465 65.2011 17.4733 62.0856 14.3889ZM38.3911 65.6792H38.3791C33.3957 65.6807 28.5029 64.3471 24.2096 61.817L23.1929 61.2163L12.6559 63.9674L15.4685 53.7426L14.8062 52.6915C12.0197 48.2799 10.5434 43.1677 10.5491 37.9498C10.5491 22.6735 23.0443 10.2444 38.4016 10.2444C45.7687 10.2312 52.8393 13.1449 58.0584 18.3444C63.2774 23.544 66.2174 30.6037 66.2317 37.9708C66.2257 53.2486 53.7365 65.6792 38.3911 65.6792ZM53.6614 44.928C52.825 44.5105 48.7059 42.4953 47.9431 42.2175C47.1803 41.9397 46.6172 41.8 46.06 42.6349C45.5029 43.4699 43.8977 45.3379 43.4096 45.901C42.9216 46.4641 42.4336 46.5257 41.5971 46.1083C40.7607 45.6908 38.0623 44.8123 34.8653 41.9742C32.377 39.7653 30.6982 37.0383 30.2101 36.2049C29.7221 35.3715 30.1576 34.9195 30.5765 34.505C30.9535 34.1311 31.413 33.5319 31.8319 33.0454C32.2509 32.5589 32.3905 32.2105 32.6683 31.6549C32.9461 31.0993 32.808 30.6127 32.5993 30.1968C32.3905 29.7808 30.7162 25.6798 30.0194 24.0115C29.3392 22.3867 28.6499 22.6075 28.1364 22.5819C27.6483 22.5579 27.0852 22.5519 26.5311 22.5519C26.1075 22.5629 25.6907 22.6611 25.3068 22.8405C24.9229 23.0198 24.58 23.2763 24.2997 23.594C23.5323 24.4289 21.3699 26.4472 21.3699 30.5437C21.3699 34.6402 24.3732 38.6045 24.7877 39.1601C25.2021 39.7157 30.6892 48.1295 39.0849 51.7379C40.6439 52.4056 42.2368 52.991 43.8571 53.4919C45.8618 54.1256 47.6863 54.037 49.1279 53.8222C50.7362 53.5835 54.0834 51.807 54.7786 49.8609C55.4739 47.9147 55.4754 46.2479 55.2667 45.901C55.0579 45.5541 54.4993 45.3439 53.6614 44.928Z"/>
</symbol>

<symbol id="viber" viewBox="0 0 77 78" >
<path d="M65.979 7.48757C64.0719 5.73064 56.3535 0.129486 39.1446 0.0544034C39.1446 0.0544034 18.8573 -1.16193 8.97644 7.90803C3.4804 13.4041 1.54328 21.4679 1.33305 31.4539C1.12282 41.4398 0.867535 60.1504 18.9023 65.226H18.9174L18.9023 72.9745C18.9023 72.9745 18.7822 76.1129 20.8545 76.7436C23.3472 77.5245 24.8188 75.1368 27.2065 72.569C28.5129 71.1575 30.3149 69.0852 31.6814 67.5085C44.0249 68.5446 53.5003 66.172 54.5815 65.8266C57.0743 65.0157 71.1747 63.2138 73.4572 44.5032C75.8298 25.192 72.316 12.9986 65.979 7.48757ZM68.0663 43.0917C66.1292 58.7088 54.7016 59.6999 52.5993 60.3756C51.6983 60.6609 43.3642 62.7332 32.8977 62.0575C32.8977 62.0575 25.0891 71.4728 22.6565 73.9205C21.8606 74.7164 20.9896 74.6413 21.0046 73.0646C21.0046 72.0284 21.0647 60.1954 21.0647 60.1954C21.0497 60.1954 21.0497 60.1954 21.0647 60.1954C5.77793 55.9608 6.67892 40.0283 6.8441 31.6941C7.00928 23.36 8.58601 16.5275 13.2411 11.9324C21.6053 4.34912 38.8292 5.47536 38.8292 5.47536C53.3802 5.53542 60.3478 9.92024 61.9696 11.3919C67.3305 15.9869 70.0635 26.979 68.0663 43.0917ZM47.1934 30.9583C47.2535 32.2498 45.3163 32.3399 45.2563 31.0484C45.0911 27.7448 43.5444 26.138 40.3609 25.9578C39.0695 25.8828 39.1896 23.9456 40.466 24.0207C44.6556 24.246 46.9832 26.6486 47.1934 30.9583ZM50.2418 32.6552C50.3919 26.2882 46.4125 21.3027 38.8592 20.7471C37.5828 20.657 37.718 18.7199 38.9944 18.81C47.704 19.4407 52.3441 25.4323 52.1789 32.7003C52.1639 33.9917 50.2117 33.9316 50.2418 32.6552ZM57.2995 34.6674C57.3145 35.9588 55.3624 35.9738 55.3624 34.6824C55.2723 22.444 47.1183 15.7767 37.2225 15.7016C35.9461 15.6866 35.9461 13.7645 37.2225 13.7645C48.2896 13.8395 57.1944 21.4829 57.2995 34.6674ZM55.6026 49.3986V49.4286C53.9809 52.2817 50.9475 55.4352 47.8241 54.4291L47.7941 54.3841C44.6256 53.4981 37.1624 49.6539 32.4472 45.8997C30.0145 43.9776 27.7921 41.7101 26.0802 39.5327C24.5335 37.5956 22.9718 35.2981 21.4551 32.5351C18.2566 26.7537 17.5509 24.1709 17.5509 24.1709C16.5447 21.0475 19.6832 18.0141 22.5513 16.3923H22.5814C23.9629 15.6716 25.2843 15.9118 26.1703 16.978C26.1703 16.978 28.0324 19.2004 28.8282 20.2966C29.5791 21.3178 30.5852 22.9545 31.1107 23.8706C32.0267 25.5074 31.4561 27.1742 30.5551 27.8649L28.7532 29.3065C27.8371 30.0423 27.9573 31.4088 27.9573 31.4088C27.9573 31.4088 30.6302 41.5149 40.6162 44.0677C40.6162 44.0677 41.9827 44.1879 42.7185 43.2719L44.1601 41.4699C44.8508 40.5689 46.5177 39.9983 48.1545 40.9143C50.3619 42.1606 53.17 44.0978 55.032 45.8547C56.0832 46.7106 56.3234 48.0171 55.6026 49.3986Z"/>
</symbol>
<symbol id="target" viewBox="0 0 101 101" >
<path d="M82.2 48.1h-5.3c-1.1-12.7-11.3-22.8-24-24v-5.3c0-1.3-1.1-2.4-2.4-2.4s-2.4 1.1-2.4 2.4v5.3c-12.7 1.1-22.8 11.3-24 24h-5.3c-1.3 0-2.4 1.1-2.4 2.4s1.1 2.4 2.4 2.4h5.3c1.1 12.7 11.3 22.8 24 24v5.3c0 1.3 1.1 2.4 2.4 2.4s2.4-1.1 2.4-2.4v-5.3c12.7-1.1 22.8-11.3 24-24h5.3c1.3 0 2.4-1.1 2.4-2.4s-1.1-2.4-2.4-2.4zm-19.9 4.8H72C71 63 63 71 52.9 72.1v-9.7c0-1.3-1.1-2.4-2.4-2.4s-2.4 1.1-2.4 2.4v9.7C38 71 30 63 28.9 52.9h9.7c1.3 0 2.4-1.1 2.4-2.4s-1.1-2.4-2.4-2.4h-9.7C30 38 38 30 48.1 28.9v9.7c0 1.3 1.1 2.4 2.4 2.4s2.4-1.1 2.4-2.4v-9.7C63 30 71 38 72.1 48.1h-9.7c-1.3 0-2.4 1.1-2.4 2.4s1 2.4 2.3 2.4z" />
</symbol>

<symbol id="catalog" viewBox="0 0 50 50" >
<path d="M40.625 3.125H12.5C11.6712 3.125 10.8763 3.45424 10.2903 4.04029C9.70424 4.62634 9.375 5.4212 9.375 6.25V12.5H6.25V15.625H9.375V23.4375H6.25V26.5625H9.375V34.375H6.25V37.5H9.375V43.75C9.375 44.5788 9.70424 45.3737 10.2903 45.9597C10.8763 46.5458 11.6712 46.875 12.5 46.875H40.625C41.4538 46.875 42.2487 46.5458 42.8347 45.9597C43.4208 45.3737 43.75 44.5788 43.75 43.75V6.25C43.75 5.4212 43.4208 4.62634 42.8347 4.04029C42.2487 3.45424 41.4538 3.125 40.625 3.125ZM40.625 43.75H12.5V37.5H15.625V34.375H12.5V26.5625H15.625V23.4375H12.5V15.625H15.625V12.5H12.5V6.25H40.625V43.75Z" />
<path d="M25 12H37.5V15.125H25V12ZM25 22.9375H37.5V26.0625H25V22.9375ZM25 33.875H37.5V37H25V33.875Z" />
</symbol>

<symbol id="cart" viewBox="0 0 92 92" >
 <path d="M91.8 27.3L81.1 61c-.8 2.4-2.9 4-5.4 4H34.4c-2.4 0-4.7-1.5-5.5-3.7L13.1 19H4c-2.2 0-4-1.8-4-4s1.8-4 4-4h11.9c1.7 0 3.2 1.1 3.8 2.7L36 57h38l8.5-27H35.4c-2.2 0-4-1.8-4-4s1.8-4 4-4H88c1.3 0 2.5.7 3.2 1.7.8 1 1 2.4.6 3.6zm-55.4 43c-1.7 0-3.4.7-4.6 1.9-1.2 1.2-1.9 2.9-1.9 4.6 0 1.7.7 3.4 1.9 4.6 1.2 1.2 2.9 1.9 4.6 1.9s3.4-.7 4.6-1.9c1.2-1.2 1.9-2.9 1.9-4.6 0-1.7-.7-3.4-1.9-4.6-1.2-1.2-2.9-1.9-4.6-1.9zm35.9 0c-1.7 0-3.4.7-4.6 1.9s-1.9 2.9-1.9 4.6c0 1.7.7 3.4 1.9 4.6 1.2 1.2 2.9 1.9 4.6 1.9 1.7 0 3.4-.7 4.6-1.9 1.2-1.2 1.9-2.9 1.9-4.6 0-1.7-.7-3.4-1.9-4.6s-2.9-1.9-4.6-1.9z"/>
</symbol>

</svg>
